HIERARCHY
ROOT Hips
{
 OFFSET 0.000000 0.000000 0.000000
 CHANNELS 6 Xposition Yposition Zposition Yrotation Xrotation Zrotation
 JOINT Chest
 {
  OFFSET 0.000000 9.585900 0.002600
  CHANNELS 3 Yrotation Xrotation Zrotation
  JOINT Chest2
  {
   OFFSET 0.000000 9.601200 -0.005300
   CHANNELS 3 Yrotation Xrotation Zrotation
   JOINT Chest3
   {
    OFFSET 0.000000 9.561800 0.000000
    CHANNELS 3 Yrotation Xrotation Zrotation
    JOINT Chest4
    {
     OFFSET 0.000000 9.552100 0.000000
     CHANNELS 3 Yrotation Xrotation Zrotation
     JOINT Neck
     {
      OFFSET 0.000000 14.453000 0.000000
      CHANNELS 3 Yrotation Xrotation Zrotation
      JOINT Head
      {
       OFFSET 0.000000 8.936500 -0.011300
       CHANNELS 3 Yrotation Xrotation Zrotation
       End Site
       {
        OFFSET 0.000000 17.073600 -0.006000
       }
      }
     }
     JOINT RightCollar
     {
      OFFSET -2.921100 9.558500 0.000000
      CHANNELS 3 Yrotation Xrotation Zrotation
      JOINT RightShoulder
      {
       OFFSET -13.519700 0.000000 0.000000
       CHANNELS 3 Yrotation Xrotation Zrotation
       JOINT RightElbow
       {
        OFFSET 0.000000 -29.696600 0.000000
        CHANNELS 3 Yrotation Xrotation Zrotation
        JOINT RightWrist
        {
         OFFSET 0.000000 -24.004700 0.000000
         CHANNELS 3 Yrotation Xrotation Zrotation
         End Site
         {
          OFFSET 0.000000 -17.728500 0.000000
         }
        }
       }
      }
     }
     JOINT LeftCollar
     {
      OFFSET 2.921100 9.558500 0.000000
      CHANNELS 3 Yrotation Xrotation Zrotation
      JOINT LeftShoulder
      {
       OFFSET 13.519700 0.000000 0.000000
       CHANNELS 3 Yrotation Xrotation Zrotation
       JOINT LeftElbow
       {
        OFFSET 0.000000 -29.696600 0.000000
        CHANNELS 3 Yrotation Xrotation Zrotation
        JOINT LeftWrist
        {
         OFFSET 0.000000 -24.004700 0.000000
         CHANNELS 3 Yrotation Xrotation Zrotation
         End Site
         {
          OFFSET 0.000000 -17.728500 0.000000
         }
        }
       }
      }
     }
    }
   }
  }
 }
 JOINT RightHip
 {
  OFFSET -7.771700 -0.012900 -0.001300
  CHANNELS 3 Yrotation Xrotation Zrotation
  JOINT RightKnee
  {
   OFFSET 0.000000 -40.869800 0.001200
   CHANNELS 3 Yrotation Xrotation Zrotation
   JOINT RightAnkle
   {
    OFFSET 0.000000 -39.717900 0.002100
    CHANNELS 3 Yrotation Xrotation Zrotation
    JOINT RightToe
    {
     OFFSET 0.000000 -4.965400 11.033500
     CHANNELS 3 Yrotation Xrotation Zrotation
     End Site
     {
      OFFSET 0.000000 -1.423100 5.872300
     }
    }
   }
  }
 }
 JOINT LeftHip
 {
  OFFSET 7.771700 -0.012900 -0.001300
  CHANNELS 3 Yrotation Xrotation Zrotation
  JOINT LeftKnee
  {
   OFFSET 0.000000 -40.869800 0.001200
   CHANNELS 3 Yrotation Xrotation Zrotation
   JOINT LeftAnkle
   {
    OFFSET 0.000000 -39.717900 0.002100
    CHANNELS 3 Yrotation Xrotation Zrotation
    JOINT LeftToe
    {
     OFFSET 0.000000 -4.965400 11.033500
     CHANNELS 3 Yrotation Xrotation Zrotation
     End Site
     {
      OFFSET 0.000000 -1.423100 5.872300
     }
    }
   }
  }
 }
}
MOTION
Frames: 13
Frame Time: 0.008333
0.000000 85.388000 0.000000 0.000000 -5.767877 0.000000 0.000000 11.653817 0.000000 0.000000 -5.885947 0.000000 0.000000 -0.000000 0.000000 0.000000 -0.000000 0.000000 0.000000 12.528835 0.000000 0.000000 0.711642 0.000000 0.000000 -0.000000 0.000000 0.000000 0.000000 -90.000000 0.000000 -2.309062 0.000000 0.000000 2.309062 0.000000 0.000000 -0.000000 0.000000 0.000000 -0.000000 90.000000 0.000000 -2.309062 0.000000 0.000000 2.309062 0.000000 0.000000 8.520406 0.000000 0.000000 1.905762 0.000000 -0.000000 -4.658285 0.000000 0.000000 -0.000000 0.000000 0.000000 8.520406 0.000000 0.000000 1.905762 0.000000 -0.000000 -4.658285 0.000000 0.000000 -0.000000 0.000000
-68.784395 48.439277 20.527192 173.625303 -26.849676 -0.089143 -0.092670 11.958846 1.588798 -0.176751 6.832450 1.386353 -0.187713 8.542007 1.730070 -0.183497 6.831323 1.390331 -0.363797 16.784464 -2.302270 0.122200 -4.605724 -4.137059 2.454818 4.869001 -6.768671 -3.061433 -19.540794 -8.049224 36.461811 -57.615797 -22.259432 11.654450 9.607645 -35.881755 -1.549750 1.964155 -0.843703 5.516344 -21.267874 -1.453503 -64.667170 -41.572579 40.030428 -8.018937 16.007153 35.970275 26.697136 -52.785207 -38.617370 -114.973336 68.641693 -101.859999 5.329181 -5.327124 2.726026 0.280098 -1.081731 0.133852 -3.620537 -57.500816 14.874751 103.383499 83.169285 99.656334 -7.557051 -11.495830 -0.678433 0.325919 0.871423 0.153911
-68.783833 48.439112 20.528313 173.621354 -26.843116 -0.091364 -0.079555 11.954334 1.592439 -0.177086 6.831318 1.387894 -0.190864 8.541072 1.727871 -0.174699 6.831941 1.385064 -0.420229 16.761769 -2.303200 0.039139 -4.641690 -4.122181 2.445976 4.851932 -6.757857 -3.060246 -19.526871 -8.051201 36.444555 -57.617107 -22.242166 11.641360 9.600203 -35.892271 -1.562946 1.961376 -0.832126 5.517191 -21.265048 -1.452682 -64.666821 -41.574053 40.031709 -8.020773 15.999310 35.968396 26.702086 -52.791323 -38.616867 -114.967092 68.642302 -101.849960 5.333723 -5.325082 2.721164 0.283035 -1.082094 0.133391 -3.623673 -57.508469 14.883171 103.390457 83.170101 99.664291 -7.556272 -11.493147 -0.678547 0.326205 0.869022 0.152406
-68.784446 48.439246 20.528871 173.620131 -26.839404 -0.088066 -0.078008 11.952420 1.587511 -0.175130 6.829468 1.387770 -0.190206 8.541607 1.726296 -0.173746 6.830994 1.384405 -0.455883 16.751167 -2.303880 -0.046704 -4.670319 -4.108934 2.448368 4.836959 -6.752485 -3.061506 -19.513769 -8.053452 36.421866 -57.618969 -22.220425 11.628659 9.592683 -35.901599 -1.572579 1.955929 -0.826571 5.523560 -21.258877 -1.451775 -64.663691 -41.578552 40.028096 -8.019978 15.997227 35.965290 26.708135 -52.793127 -38.622359 -114.957398 68.642311 -101.839650 5.328632 -5.320998 2.723836 0.289774 -1.082966 0.129552 -3.619427 -57.513205 14.879372 103.382831 83.170162 99.658956 -7.567278 -11.486611 -0.678772 0.329317 0.864361 0.151267
-68.783636 48.439204 20.529985 173.617945 -26.832830 -0.094046 -0.072191 11.949154 1.591830 -0.175409 6.828490 1.387014 -0.185737 8.540022 1.725391 -0.171871 6.829833 1.383752 -0.488745 16.743148 -2.301357 -0.136446 -4.693582 -4.094876 2.451488 4.827813 -6.745363 -3.067558 -19.508855 -8.053654 36.358316 -57.618237 -22.148156 11.632369 9.578520 -35.928143 -1.585898 1.946711 -0.817301 5.532526 -21.251029 -1.452989 -64.645373 -41.593899 40.001863 -8.027280 15.998011 35.974690 26.707593 -52.803716 -38.613882 -114.950800 68.640550 -101.836104 5.338696 -5.314693 2.719751 0.286768 -1.087776 0.134622 -3.627085 -57.520473 14.890986 103.365484 83.168128 99.647606 -7.578162 -11.486457 -0.681787 0.333501 0.866374 0.151017
-68.784076 48.439234 20.530849 173.622490 -26.826431 -0.096467 -0.072741 11.947175 1.587929 -0.168422 6.828965 1.383304 -0.184833 8.536697 1.729083 -0.174849 6.827726 1.387480 -0.502209 16.740387 -2.298536 -0.267674 -4.722712 -4.076569 2.456478 4.813112 -6.739261 -3.075868 -19.499803 -8.054199 36.347409 -57.613309 -22.132281 11.623865 9.572326 -35.935591 -1.602014 1.932289 -0.810119 5.545362 -21.238848 -1.455524 -64.630788 -41.600559 39.983573 -8.009046 15.993081 35.979070 26.716671 -52.806956 -38.620605 -114.951964 68.637347 -101.835233 5.335861 -5.311323 2.722739 0.283607 -1.089512 0.134318 -3.636230 -57.527293 14.894423 103.349626 83.166938 99.631709 -7.578969 -11.482436 -0.684639 0.338148 0.865735 0.152458
-68.785757 48.439593 20.530749 173.622097 -26.824569 -0.089589 -0.071764 11.947928 1.577473 -0.164163 6.829808 1.382584 -0.180994 8.536385 1.728796 -0.174915 6.824405 1.390106 -0.549642 16.729573 -2.304623 -0.397231 -4.748108 -4.053939 2.466267 4.783856 -6.737795 -3.087165 -19.475750 -8.049686 36.307403 -57.605825 -22.091631 11.623169 9.558406 -35.948966 -1.614503 1.927676 -0.803254 5.553832 -21.235214 -1.456410 -64.617099 -41.606384 39.964642 -8.007062 15.990448 35.984705 26.728247 -52.805276 -38.632762 -114.952340 68.636309 -101.836020 5.335135 -5.310943 2.723549 0.276442 -1.088755 0.131396 -3.636261 -57.525192 14.888167 103.316414 83.160931 99.590851 -7.578493 -11.484968 -0.681162 0.332188 0.870889 0.149793
-68.786417 48.439753 20.530902 173.622136 -26.820356 -0.089870 -0.071031 11.944437 1.576645 -0.158710 6.832302 1.380452 -0.178654 8.536221 1.727740 -0.163500 6.828608 1.382107 -0.671610 16.703885 -2.307403 -0.491895 -4.771864 -4.037919 2.452417 4.766888 -6.723141 -3.080876 -19.472643 -8.049984 36.260773 -57.598124 -22.042952 11.604296 9.545577 -35.985330 -1.639168 1.913770 -0.785392 5.561140 -21.227731 -1.458220 -64.603009 -41.606369 39.949108 -8.007864 15.985695 35.992713 26.731122 -52.809406 -38.635314 -114.949086 68.635492 -101.834457 5.338382 -5.307635 2.725734 0.267080 -1.090893 0.128409 -3.645432 -57.528193 14.898396 103.327352 83.164294 99.596184 -7.582580 -11.486351 -0.680030 0.334377 0.872635 0.150880
-68.788240 48.440071 20.530254 173.621372 -26.818725 -0.082802 -0.066587 11.946905 1.569066 -0.155982 6.830088 1.378432 -0.181331 8.535301 1.729804 -0.156712 6.828255 1.375601 -0.773501 16.686711 -2.312928 -0.630158 -4.798945 -4.016431 2.444978 4.756562 -6.714705 -3.075502 -19.472525 -8.049367 36.202957 -57.588157 -21.981951 11.558115 9.507898 -36.037024 -1.659488 1.902810 -0.771558 5.572193 -21.215688 -1.458807 -64.592829 -41.608496 39.935311 -8.005987 15.983354 36.001519 26.750228 -52.804891 -38.655190 -114.954193 68.635908 -101.837380 5.342481 -5.301632 2.730057 0.260096 -1.095383 0.126135 -3.640644 -57.529031 14.894229 103.330387 83.158739 99.595055 -7.601105 -11.485140 -0.680800 0.342056 0.870712 0.154626
-68.788685 48.439999 20.530188 173.615268 -26.812014 -0.082103 -0.047652 11.944544 1.568481 -0.158863 6.826709 1.378596 -0.184308 8.534235 1.732828 -0.152291 6.827219 1.370641 -0.866336 16.671839 -2.318976 -0.805014 -4.827672 -3.987774 2.443825 4.736661 -6.707068 -3.068328 -19.476917 -8.044031 36.118743 -57.564550 -21.896966 11.526859 9.469146 -36.087578 -1.676849 1.894130 -0.758489 5.576653 -21.206916 -1.456903 -64.580605 -41.612515 39.923418 -7.994488 15.970006 36.005390 26.756617 -52.810637 -38.657646 -114.950772 68.642763 -101.828605 5.329798 -5.299286 2.722823 0.265634 -1.094902 0.128203 -3.641474 -57.535078 14.902976 103.350469 83.159450 99.611911 -7.603010 -11.489449 -0.678364 0.343443 0.872998 0.154578
-68.788243 48.440402 20.529009 173.611617 -26.810969 -0.087009 -0.036710 11.945956 1.573409 -0.155066 6.825038 1.376224 -0.181737 8.532830 1.729980 -0.158840 6.826905 1.378590 -0.965262 16.655895 -2.332006 -0.999770 -4.855707 -3.956432 2.444509 4.714676 -6.709228 -3.069488 -19.462286 -8.037560 36.048638 -57.558729 -21.825773 11.532041 9.445065 -36.115231 -1.682674 1.891285 -0.754001 5.573963 -21.202485 -1.453888 -64.568352 -41.616902 39.915945 -7.988796 15.958414 36.010420 26.749153 -52.812770 -38.646601 -114.951452 68.647849 -101.825435 5.325179 -5.303116 2.714225 0.272749 -1.092625 0.130778 -3.649164 -57.535454 14.917964 103.384017 83.160607 99.643079 -7.598142 -11.496323 -0.676883 0.339835 0.876286 0.154453
-68.787794 48.440679 20.527914 173.609190 -26.807084 -0.092334 -0.030995 11.943040 1.579373 -0.147563 6.824128 1.373146 -0.178088 8.531544 1.725995 -0.156462 6.824620 1.376885 -1.080835 16.642048 -2.332526 -1.216350 -4.883987 -3.924505 2.440852 4.691999 -6.697641 -3.074069 -19.444987 -8.034816 35.964887 -57.551738 -21.743875 11.492854 9.400164 -36.171535 -1.710537 1.880143 -0.735513 5.588487 -21.187406 -1.456089 -64.556647 -41.621314 39.906637 -7.982469 15.947187 36.017310 26.741971 -52.818112 -38.635080 -114.944545 68.646827 -101.818374 5.325357 -5.306939 2.709949 0.274512 -1.089694 0.130515 -3.654440 -57.539293 14.931968 103.422935 83.162871 99.681061 -7.599105 -11.505485 -0.674439 0.344689 0.881199 0.155130
-68.787835 48.441152 20.526422 173.612029 -26.803606 -0.096352 -0.027489 11.939867 1.579696 -0.144628 6.823824 1.374654 -0.174491 8.528782 1.722987 -0.134173 6.820123 1.370483 -1.222865 16.630306 -2.328685 -1.455582 -4.914412 -3.889997 2.423672 4.635966 -6.689498 -3.075134 -19.399105 -8.029848 35.759297 -57.540473 -21.550021 11.498460 9.338529 -36.239502 -1.778507 1.856339 -0.718786 5.610193 -21.158095 -1.446103 -64.536156 -41.627368 39.897846 -7.971309 15.939220 36.024169 26.734863 -52.820725 -38.628893 -114.942915 68.652790 -101.817137 5.314748 -5.311528 2.709246 0.272300 -1.086526 0.130463 -3.659290 -57.543510 14.938218 103.450756 83.164135 99.708937 -7.598472 -11.508940 -0.674057 0.337484 0.880290 0.154881
